G04*
G04 #@! TF.GenerationSoftware,Altium Limited,Altium Designer,25.8.1 (18)*
G04*
G04 Layer_Color=65535*
%FSLAX44Y44*%
%MOMM*%
G71*
G04*
G04 #@! TF.SameCoordinates,17EE5B44-E4A8-4C47-BB28-8E3532D48F90*
G04*
G04*
G04 #@! TF.FilePolarity,Positive*
G04*
G01*
G75*
%ADD10C,0.2000*%
%ADD11C,0.1270*%
%ADD12C,0.1524*%
%ADD13C,0.2540*%
D10*
X200240Y359410D02*
G03*
X200240Y359410I-1000J0D01*
G01*
D11*
X205740Y346710D02*
X307340D01*
Y372110D01*
X205740Y346710D02*
Y372110D01*
X307340D01*
D12*
X228346Y40640D02*
X284734D01*
Y12700D02*
Y40640D01*
X228346Y12700D02*
X284734D01*
X228346D02*
Y40640D01*
D13*
X220980Y337817D02*
X224366D01*
X222673D01*
Y327660D01*
X220980D01*
X224366D01*
X229444D02*
Y334431D01*
X234522D01*
X236215Y332738D01*
Y327660D01*
X246372D02*
X239601D01*
X246372Y334431D01*
Y336124D01*
X244679Y337817D01*
X241293D01*
X239601Y336124D01*
X313690Y349247D02*
X317076D01*
X315383D01*
Y339090D01*
X313690D01*
X317076D01*
X322154D02*
Y345861D01*
X327232D01*
X328925Y344168D01*
Y339090D01*
X337389D02*
Y349247D01*
X332311Y344168D01*
X339082D01*
X265430Y336547D02*
X268816D01*
X267123D01*
Y326390D01*
X265430D01*
X268816D01*
X273894D02*
Y333161D01*
X278972D01*
X280665Y331468D01*
Y326390D01*
X284051Y334854D02*
X285743Y336547D01*
X289129D01*
X290822Y334854D01*
Y333161D01*
X289129Y331468D01*
X287436D01*
X289129D01*
X290822Y329776D01*
Y328083D01*
X289129Y326390D01*
X285743D01*
X284051Y328083D01*
X170180Y345437D02*
X173566D01*
X171873D01*
Y335280D01*
X170180D01*
X173566D01*
X178644D02*
Y342051D01*
X183722D01*
X185415Y340358D01*
Y335280D01*
X188801D02*
X192186D01*
X190493D01*
Y345437D01*
X188801Y343744D01*
X301411Y45294D02*
X299718Y46987D01*
X296333D01*
X294640Y45294D01*
Y38523D01*
X296333Y36830D01*
X299718D01*
X301411Y38523D01*
Y41908D01*
X298026D01*
X304797Y36830D02*
Y46987D01*
X311568Y36830D01*
Y46987D01*
X314953D02*
Y36830D01*
X320032D01*
X321725Y38523D01*
Y45294D01*
X320032Y46987D01*
X314953D01*
X191770Y48260D02*
Y41489D01*
X195156Y38103D01*
X198541Y41489D01*
Y48260D01*
X208698Y46567D02*
X207005Y48260D01*
X203619D01*
X201927Y46567D01*
Y39796D01*
X203619Y38103D01*
X207005D01*
X208698Y39796D01*
X218855Y46567D02*
X217162Y48260D01*
X213776D01*
X212083Y46567D01*
Y39796D01*
X213776Y38103D01*
X217162D01*
X218855Y39796D01*
X132080Y290823D02*
Y275588D01*
X139698D01*
X142237Y278127D01*
Y288284D01*
X139698Y290823D01*
X132080D01*
X149854Y275588D02*
X154933D01*
X157472Y278127D01*
Y283206D01*
X154933Y285745D01*
X149854D01*
X147315Y283206D01*
Y278127D01*
X149854Y275588D01*
X167628Y270510D02*
X170168D01*
X172707Y273049D01*
Y285745D01*
X165089D01*
X162550Y283206D01*
Y278127D01*
X165089Y275588D01*
X172707D01*
X177785Y285745D02*
X187942D01*
X177785Y275588D01*
X187942D01*
X193020Y273049D02*
X203177D01*
X208255Y290823D02*
Y275588D01*
X213334Y280667D01*
X218412Y275588D01*
Y290823D01*
X226030Y285745D02*
X231108D01*
X233647Y283206D01*
Y275588D01*
X226030D01*
X223490Y278127D01*
X226030Y280667D01*
X233647D01*
X241265Y288284D02*
Y285745D01*
X238725D01*
X243804D01*
X241265D01*
Y278127D01*
X243804Y275588D01*
X261578Y285745D02*
X253961D01*
X251421Y283206D01*
Y278127D01*
X253961Y275588D01*
X261578D01*
X266656Y290823D02*
Y275588D01*
Y283206D01*
X269196Y285745D01*
X274274D01*
X276813Y283206D01*
Y275588D01*
X281891Y273049D02*
X292048D01*
X297127Y275588D02*
Y290823D01*
X304744D01*
X307283Y288284D01*
Y283206D01*
X304744Y280667D01*
X297127D01*
X322518Y288284D02*
X319979Y290823D01*
X314901D01*
X312362Y288284D01*
Y278127D01*
X314901Y275588D01*
X319979D01*
X322518Y278127D01*
X327597Y290823D02*
Y275588D01*
X335214D01*
X337753Y278127D01*
Y280667D01*
X335214Y283206D01*
X327597D01*
X335214D01*
X337753Y285745D01*
Y288284D01*
X335214Y290823D01*
X327597D01*
X342832Y273049D02*
X352989D01*
X358067Y290823D02*
Y280667D01*
X363145Y275588D01*
X368224Y280667D01*
Y290823D01*
X373302Y288284D02*
X375841Y290823D01*
X380919D01*
X383459Y288284D01*
Y278127D01*
X380919Y275588D01*
X375841D01*
X373302Y278127D01*
Y288284D01*
M02*
