G04*
G04 #@! TF.GenerationSoftware,Altium Limited,Altium Designer,25.8.1 (18)*
G04*
G04 Layer_Physical_Order=1*
G04 Layer_Color=255*
%FSLAX44Y44*%
%MOMM*%
G71*
G04*
G04 #@! TF.SameCoordinates,17EE5B44-E4A8-4C47-BB28-8E3532D48F90*
G04*
G04*
G04 #@! TF.FilePolarity,Positive*
G04*
G01*
G75*
G04:AMPARAMS|DCode=14|XSize=1.05mm|YSize=1.38mm|CornerRadius=0.1313mm|HoleSize=0mm|Usage=FLASHONLY|Rotation=0.000|XOffset=0mm|YOffset=0mm|HoleType=Round|Shape=RoundedRectangle|*
%AMROUNDEDRECTD14*
21,1,1.0500,1.1175,0,0,0.0*
21,1,0.7875,1.3800,0,0,0.0*
1,1,0.2625,0.3938,-0.5587*
1,1,0.2625,-0.3938,-0.5587*
1,1,0.2625,-0.3938,0.5587*
1,1,0.2625,0.3938,0.5587*
%
%ADD14ROUNDEDRECTD14*%
%ADD15R,1.8000X0.7500*%
%ADD16R,0.7620X1.3462*%
%ADD17R,1.8000X0.6000*%
%ADD18R,0.9000X1.3000*%
%ADD23C,1.6096*%
%ADD29C,0.3810*%
%ADD30C,1.9500*%
%ADD31R,1.9500X1.9500*%
%ADD32R,1.6096X1.6096*%
%ADD33C,4.5620*%
G36*
X165091Y306531D02*
X127673Y269113D01*
X124080D01*
X123739Y269934D01*
X161157Y307352D01*
X164751D01*
X165091Y306531D01*
D02*
G37*
G36*
X493052Y220922D02*
X493148Y220072D01*
X493148D01*
Y203008D01*
X494030D01*
Y183072D01*
X493148D01*
Y171026D01*
X487808Y166696D01*
X487808Y166696D01*
X487490Y166439D01*
X487490Y166439D01*
X486610Y165725D01*
X486610Y165725D01*
X485923Y165169D01*
X485923Y165169D01*
X484350Y163894D01*
X484350Y163894D01*
Y163894D01*
X482299Y162231D01*
X469545Y151892D01*
X469545Y151892D01*
Y151892D01*
X467691Y150389D01*
X467691Y150389D01*
Y150389D01*
X466369Y149318D01*
X466369Y149318D01*
X466119Y149115D01*
X466119Y149115D01*
X465004Y148211D01*
X465004Y148211D01*
X464552Y147845D01*
X464552Y147845D01*
X439501Y127538D01*
X436795Y125344D01*
X436795Y125344D01*
Y125344D01*
X425875Y116492D01*
X425874Y116492D01*
Y116492D01*
X415337Y107950D01*
X415337Y107950D01*
Y107950D01*
X413442Y106414D01*
X413442Y106414D01*
Y106414D01*
X412709Y105820D01*
X412709Y105820D01*
X412709Y105820D01*
X411836Y105112D01*
X337370Y44748D01*
X337370D01*
X337370Y44748D01*
X297835Y12700D01*
X206453D01*
X21590Y168509D01*
Y174500D01*
X30360D01*
Y180790D01*
Y187080D01*
X22479D01*
X22452Y187119D01*
X22453Y187157D01*
X22914Y188008D01*
X43932D01*
Y189026D01*
X71120D01*
X72656Y189331D01*
X73958Y190202D01*
X119678Y235922D01*
X119684Y235930D01*
X120573Y235660D01*
Y166478D01*
X120532D01*
X119227Y166218D01*
X118121Y165479D01*
X117382Y164372D01*
X117122Y163067D01*
Y151892D01*
X117382Y150588D01*
X118121Y149481D01*
X119227Y148742D01*
X120532Y148483D01*
X128407D01*
X129712Y148742D01*
X130818Y149481D01*
X131558Y150588D01*
X131817Y151892D01*
Y163067D01*
X131558Y164372D01*
X130818Y165479D01*
X129712Y166218D01*
X128601Y166439D01*
Y251587D01*
X130429D01*
Y260515D01*
X135450Y265536D01*
X136271Y265196D01*
Y251587D01*
X138099D01*
Y199580D01*
X138404Y198044D01*
X139275Y196742D01*
X173786Y162231D01*
Y107950D01*
X174091Y106414D01*
X174962Y105112D01*
X239826Y40247D01*
Y35992D01*
X237651Y34736D01*
X235774Y32859D01*
X234447Y30561D01*
X233760Y27997D01*
Y25343D01*
X234447Y22779D01*
X235774Y20481D01*
X237651Y18604D01*
X239949Y17277D01*
X242513Y16590D01*
X245167D01*
X247731Y17277D01*
X250029Y18604D01*
X251906Y20481D01*
X253233Y22779D01*
X253920Y25343D01*
Y27997D01*
X253233Y30561D01*
X251906Y32859D01*
X250029Y34736D01*
X247854Y35992D01*
Y41910D01*
X247549Y43446D01*
X246678Y44748D01*
X181814Y109613D01*
Y163894D01*
X181509Y165430D01*
X180638Y166732D01*
X146127Y201243D01*
Y251587D01*
X147955D01*
Y256336D01*
X366395D01*
Y251587D01*
X378079D01*
Y268021D01*
X378968Y268389D01*
X383921Y263436D01*
Y251587D01*
X385749D01*
Y165169D01*
X384637Y164948D01*
X383531Y164209D01*
X382792Y163102D01*
X382532Y161798D01*
Y150623D01*
X382792Y149318D01*
X383531Y148211D01*
X384637Y147472D01*
X385942Y147212D01*
X393817D01*
X395122Y147472D01*
X396229Y148211D01*
X396968Y149318D01*
X397227Y150623D01*
Y161798D01*
X396968Y163102D01*
X396229Y164209D01*
X395122Y164948D01*
X393817Y165208D01*
X393777D01*
Y234390D01*
X394666Y234660D01*
X394672Y234652D01*
X439122Y190202D01*
X440424Y189331D01*
X441960Y189026D01*
X469148D01*
Y188008D01*
X491212D01*
Y198072D01*
X469148D01*
Y197054D01*
X443623D01*
X401524Y239153D01*
Y270510D01*
X401219Y272046D01*
X400348Y273349D01*
X357930Y315766D01*
X356628Y316637D01*
X355092Y316942D01*
X323735D01*
X298654Y342023D01*
Y350088D01*
X300829Y351344D01*
X302706Y353221D01*
X304033Y355519D01*
X304720Y358083D01*
Y360737D01*
X304033Y363301D01*
X302706Y365599D01*
X300829Y367476D01*
X298531Y368803D01*
X295967Y369490D01*
X293313D01*
X290749Y368803D01*
X288451Y367476D01*
X286574Y365599D01*
X285247Y363301D01*
X284560Y360737D01*
Y358083D01*
X285247Y355519D01*
X286574Y353221D01*
X288451Y351344D01*
X290626Y350088D01*
Y340360D01*
X290931Y338824D01*
X291802Y337522D01*
X317402Y311922D01*
X317062Y311100D01*
X287921D01*
X278842Y320179D01*
Y356300D01*
X279320Y358083D01*
Y360737D01*
X278633Y363301D01*
X277306Y365599D01*
X275429Y367476D01*
X273131Y368803D01*
X270567Y369490D01*
X267913D01*
X265349Y368803D01*
X263051Y367476D01*
X261174Y365599D01*
X259847Y363301D01*
X259160Y360737D01*
Y358083D01*
X259847Y355519D01*
X261174Y353221D01*
X263051Y351344D01*
X265349Y350017D01*
X267913Y349330D01*
X270567D01*
X270814Y349141D01*
Y318516D01*
X271119Y316980D01*
X271990Y315678D01*
X283420Y304248D01*
X284722Y303377D01*
X286258Y303072D01*
X344285D01*
X377355Y270002D01*
X376987Y269113D01*
X366395D01*
Y264364D01*
X147955D01*
Y269113D01*
X140188D01*
X139848Y269934D01*
X171424Y301510D01*
X230848D01*
X232384Y301816D01*
X233687Y302686D01*
X246678Y315678D01*
X247549Y316980D01*
X247854Y318516D01*
Y350088D01*
X250029Y351344D01*
X251906Y353221D01*
X253233Y355519D01*
X253920Y358083D01*
Y360737D01*
X253233Y363301D01*
X251906Y365599D01*
X250029Y367476D01*
X247731Y368803D01*
X245167Y369490D01*
X242513D01*
X239949Y368803D01*
X237651Y367476D01*
X235774Y365599D01*
X234447Y363301D01*
X233760Y360737D01*
Y358083D01*
X234447Y355519D01*
X235774Y353221D01*
X237651Y351344D01*
X239826Y350088D01*
Y320179D01*
X229186Y309538D01*
X194457D01*
X194117Y310360D01*
X221278Y337522D01*
X222149Y338824D01*
X222454Y340360D01*
Y349330D01*
X228520D01*
Y369490D01*
X208360D01*
Y349330D01*
X214426D01*
Y342023D01*
X187784Y315380D01*
X159495D01*
X157958Y315075D01*
X156656Y314205D01*
X114002Y271550D01*
X113131Y270248D01*
X112826Y268712D01*
Y240423D01*
X69457Y197054D01*
X43932D01*
Y198072D01*
X22914D01*
X22453Y198923D01*
X22452Y198961D01*
X22479Y199000D01*
X30360D01*
Y205290D01*
Y211580D01*
X21590D01*
Y220072D01*
X205380Y374650D01*
X303010Y374650D01*
X493052Y220922D01*
D02*
G37*
%LPC*%
G36*
X491720Y211580D02*
X482720D01*
Y207830D01*
X491720D01*
Y211580D01*
D02*
G37*
G36*
X477640D02*
X468640D01*
Y207830D01*
X477640D01*
Y211580D01*
D02*
G37*
G36*
X44440Y211580D02*
X35440D01*
Y207830D01*
X44440D01*
Y211580D01*
D02*
G37*
G36*
X491720Y202750D02*
X482720D01*
Y199000D01*
X491720D01*
Y202750D01*
D02*
G37*
G36*
X477640D02*
X468640D01*
Y199000D01*
X477640D01*
Y202750D01*
D02*
G37*
G36*
X44440Y202750D02*
X35440D01*
Y199000D01*
X44440D01*
Y202750D01*
D02*
G37*
G36*
X491720Y187080D02*
X482720D01*
Y183330D01*
X491720D01*
Y187080D01*
D02*
G37*
G36*
X44440D02*
X35440D01*
Y183330D01*
X44440D01*
Y187080D01*
D02*
G37*
G36*
X477640D02*
X468640D01*
Y183330D01*
X477640D01*
Y187080D01*
D02*
G37*
G36*
X491720Y178250D02*
X482720D01*
Y174500D01*
X491720D01*
Y178250D01*
D02*
G37*
G36*
X477640D02*
X468640D01*
Y174500D01*
X477640D01*
Y178250D01*
D02*
G37*
G36*
X44440D02*
X35440D01*
Y174500D01*
X44440D01*
Y178250D01*
D02*
G37*
G36*
X314987Y217952D02*
X310093D01*
X305294Y216997D01*
X300773Y215125D01*
X296704Y212406D01*
X293244Y208946D01*
X290525Y204877D01*
X288653Y200356D01*
X287698Y195557D01*
Y190663D01*
X288653Y185864D01*
X290525Y181343D01*
X293244Y177274D01*
X296704Y173814D01*
X300773Y171095D01*
X305294Y169223D01*
X310093Y168268D01*
X314987D01*
X319786Y169223D01*
X324307Y171095D01*
X328376Y173814D01*
X331836Y177274D01*
X334555Y181343D01*
X336427Y185864D01*
X337382Y190663D01*
Y195557D01*
X336427Y200356D01*
X334555Y204877D01*
X331836Y208946D01*
X328376Y212406D01*
X324307Y215125D01*
X319786Y216997D01*
X314987Y217952D01*
D02*
G37*
G36*
X202987D02*
X198093D01*
X193294Y216997D01*
X188773Y215125D01*
X184704Y212406D01*
X181244Y208946D01*
X178525Y204877D01*
X176653Y200356D01*
X175698Y195557D01*
Y190663D01*
X176653Y185864D01*
X178525Y181343D01*
X181244Y177274D01*
X184704Y173814D01*
X188773Y171095D01*
X193294Y169223D01*
X198093Y168268D01*
X202987D01*
X207786Y169223D01*
X212307Y171095D01*
X216376Y173814D01*
X219836Y177274D01*
X222555Y181343D01*
X224427Y185864D01*
X225382Y190663D01*
Y195557D01*
X224427Y200356D01*
X222555Y204877D01*
X219836Y208946D01*
X216376Y212406D01*
X212307Y215125D01*
X207786Y216997D01*
X202987Y217952D01*
D02*
G37*
G36*
X146167Y166995D02*
X144770D01*
Y160020D01*
X150095D01*
Y163067D01*
X149796Y164571D01*
X148945Y165845D01*
X147670Y166696D01*
X146167Y166995D01*
D02*
G37*
G36*
X139690D02*
X138292D01*
X136789Y166696D01*
X135515Y165845D01*
X134663Y164571D01*
X134364Y163067D01*
Y160020D01*
X139690D01*
Y166995D01*
D02*
G37*
G36*
X376058Y165725D02*
X374660D01*
Y158750D01*
X379986D01*
Y161798D01*
X379687Y163301D01*
X378835Y164575D01*
X377561Y165426D01*
X376058Y165725D01*
D02*
G37*
G36*
X369580D02*
X368183D01*
X366679Y165426D01*
X365405Y164575D01*
X364554Y163301D01*
X364255Y161798D01*
Y158750D01*
X369580D01*
Y165725D01*
D02*
G37*
G36*
X150095Y154940D02*
X144770D01*
Y147965D01*
X146167D01*
X147670Y148264D01*
X148945Y149115D01*
X149796Y150389D01*
X150095Y151892D01*
Y154940D01*
D02*
G37*
G36*
X139690D02*
X134364D01*
Y151892D01*
X134663Y150389D01*
X135515Y149115D01*
X136789Y148264D01*
X138292Y147965D01*
X139690D01*
Y154940D01*
D02*
G37*
G36*
X379986Y153670D02*
X374660D01*
Y146695D01*
X376058D01*
X377561Y146994D01*
X378835Y147845D01*
X379687Y149119D01*
X379986Y150623D01*
Y153670D01*
D02*
G37*
G36*
X369580D02*
X364255D01*
Y150623D01*
X364554Y149119D01*
X365405Y147845D01*
X366679Y146994D01*
X368183Y146695D01*
X369580D01*
Y153670D01*
D02*
G37*
G36*
X259080Y130153D02*
Y120650D01*
X268583D01*
X267992Y122854D01*
X266374Y125656D01*
X264086Y127944D01*
X261284Y129563D01*
X259080Y130153D01*
D02*
G37*
G36*
X254000D02*
X251796Y129563D01*
X248994Y127944D01*
X246706Y125656D01*
X245088Y122854D01*
X244497Y120650D01*
X254000D01*
Y130153D01*
D02*
G37*
G36*
X283091Y129892D02*
X279989D01*
X276992Y129089D01*
X274306Y127538D01*
X272112Y125344D01*
X270561Y122658D01*
X269758Y119661D01*
Y116559D01*
X270561Y113562D01*
X272112Y110876D01*
X274306Y108682D01*
X276992Y107131D01*
X279989Y106328D01*
X283091D01*
X286088Y107131D01*
X288775Y108682D01*
X290968Y110876D01*
X292519Y113562D01*
X293322Y116559D01*
Y119661D01*
X292519Y122658D01*
X290968Y125344D01*
X288775Y127538D01*
X286088Y129089D01*
X283091Y129892D01*
D02*
G37*
G36*
X243322D02*
X219758D01*
Y106328D01*
X243322D01*
Y129892D01*
D02*
G37*
G36*
X268583Y115570D02*
X259080D01*
Y106067D01*
X261284Y106657D01*
X264086Y108276D01*
X266374Y110564D01*
X267992Y113366D01*
X268583Y115570D01*
D02*
G37*
G36*
X254000D02*
X244497D01*
X245088Y113366D01*
X246706Y110564D01*
X248994Y108276D01*
X251796Y106657D01*
X254000Y106067D01*
Y115570D01*
D02*
G37*
G36*
X271780Y36951D02*
Y29210D01*
X279521D01*
X279106Y30757D01*
X277712Y33171D01*
X275741Y35143D01*
X273327Y36536D01*
X271780Y36951D01*
D02*
G37*
G36*
X266700D02*
X265153Y36536D01*
X262739Y35143D01*
X260767Y33171D01*
X259374Y30757D01*
X258959Y29210D01*
X266700D01*
Y36951D01*
D02*
G37*
G36*
X279521Y24130D02*
X271780D01*
Y16389D01*
X273327Y16804D01*
X275741Y18197D01*
X277712Y20169D01*
X279106Y22583D01*
X279521Y24130D01*
D02*
G37*
G36*
X266700D02*
X258959D01*
X259374Y22583D01*
X260767Y20169D01*
X262739Y18197D01*
X265153Y16804D01*
X266700Y16389D01*
Y24130D01*
D02*
G37*
%LPD*%
D14*
X389880Y156210D02*
D03*
X372120D02*
D03*
X142230Y157480D02*
D03*
X124470D02*
D03*
D15*
X480180Y205290D02*
D03*
Y180790D02*
D03*
X32900D02*
D03*
Y205290D02*
D03*
D16*
X124587Y260350D02*
D03*
X372237D02*
D03*
X389763D02*
D03*
X142113D02*
D03*
D17*
X480180Y193040D02*
D03*
X32900D02*
D03*
D18*
X13400Y174540D02*
D03*
Y211540D02*
D03*
X499680Y174540D02*
D03*
Y211540D02*
D03*
D23*
X269240Y26670D02*
D03*
X243840Y359410D02*
D03*
X294640D02*
D03*
X243840Y26670D02*
D03*
X269240Y359410D02*
D03*
D29*
X389763Y156327D02*
Y260350D01*
X124587Y157597D02*
Y260350D01*
X169761Y305524D02*
X230848D01*
X124587Y260350D02*
X169761Y305524D01*
X230848D02*
X243840Y318516D01*
Y359410D01*
X322072Y312928D02*
X355092D01*
X397510Y237490D02*
Y270510D01*
X355092Y312928D02*
X397510Y270510D01*
X142113Y260350D02*
X372237D01*
X243840Y26670D02*
Y41910D01*
X177800Y107950D02*
X243840Y41910D01*
X177800Y107950D02*
Y163894D01*
X142113Y199580D02*
X177800Y163894D01*
X142113Y199580D02*
Y260350D01*
X397510Y237490D02*
X441960Y193040D01*
X286258Y307086D02*
X345948D01*
X389763Y263271D01*
X294640Y340360D02*
X322072Y312928D01*
X441960Y193040D02*
X480180D01*
X294640Y340360D02*
Y359410D01*
X116840Y268712D02*
X159495Y311366D01*
X32900Y193040D02*
X71120D01*
X116840Y238760D02*
Y268712D01*
X159495Y311366D02*
X189446D01*
X71120Y193040D02*
X116840Y238760D01*
X189446Y311366D02*
X218440Y340360D01*
Y359410D01*
X274828Y318516D02*
Y359410D01*
X269240D02*
X274828D01*
Y318516D02*
X286258Y307086D01*
X13400Y174540D02*
Y211540D01*
X499680Y174540D02*
Y211540D01*
D30*
X256540Y118110D02*
D03*
X281540D02*
D03*
D31*
X231540D02*
D03*
D32*
X218440Y359410D02*
D03*
D33*
X200540Y193110D02*
D03*
X312540D02*
D03*
M02*
